<?xml version="1.0" encoding="utf-8"?>
<!-- Generator: Adobe Illustrator 27.1.1, SVG Export Plug-In . SVG Version: 6.00 Build 0)  -->
<svg version="1.1" id="Capa_1" xmlns="http://www.w3.org/2000/svg" xmlns:xlink="http://www.w3.org/1999/xlink" x="0px" y="0px"
	 viewBox="0 0 93.54 93.54" style="enable-background:new 0 0 93.54 93.54;" xml:space="preserve">
<style type="text/css">
	.st0{stroke:#000000;stroke-miterlimit:10;}
	.st1{fill:#FFFFFF;stroke:#000000;stroke-miterlimit:10;}
	.st2{fill:none;stroke:#000000;stroke-width:3;stroke-miterlimit:10;}
</style>
<ellipse class="st0" cx="46.82" cy="46.61" rx="45.35" ry="43.24"/>
<g>
	<path class="st1" d="M45.26,55.72c0,2.39-0.45,4.49-1.34,6.29c-0.89,1.81-2.1,3.31-3.62,4.52c-1.52,1.21-3.3,2.12-5.34,2.72
		s-4.22,0.91-6.54,0.91c-1.57,0-3.03-0.13-4.38-0.39c-1.35-0.26-2.54-0.57-3.57-0.93c-1.03-0.36-1.89-0.74-2.58-1.14
		c-0.69-0.4-1.19-0.75-1.49-1.05c-0.3-0.3-0.52-0.74-0.65-1.32c-0.13-0.57-0.19-1.4-0.19-2.48c0-0.73,0.02-1.34,0.07-1.83
		c0.05-0.49,0.12-0.89,0.23-1.2c0.11-0.3,0.25-0.52,0.42-0.65c0.18-0.13,0.38-0.19,0.62-0.19c0.33,0,0.79,0.19,1.39,0.58
		s1.37,0.81,2.3,1.28c0.94,0.47,2.06,0.9,3.36,1.28s2.81,0.58,4.52,0.58c1.12,0,2.13-0.13,3.02-0.4c0.89-0.27,1.65-0.65,2.27-1.14
		c0.62-0.49,1.1-1.1,1.42-1.83c0.33-0.73,0.49-1.53,0.49-2.43c0-1.03-0.28-1.92-0.84-2.65s-1.3-1.39-2.2-1.97
		c-0.9-0.57-1.93-1.11-3.08-1.62c-1.15-0.5-2.33-1.04-3.55-1.6c-1.22-0.56-2.4-1.2-3.55-1.92c-1.15-0.71-2.17-1.57-3.08-2.57
		c-0.9-1-1.63-2.17-2.2-3.53c-0.56-1.36-0.84-2.99-0.84-4.89c0-2.18,0.4-4.1,1.21-5.75s1.9-3.02,3.27-4.11s2.99-1.9,4.85-2.44
		c1.86-0.54,3.84-0.81,5.92-0.81c1.08,0,2.16,0.08,3.23,0.25c1.08,0.16,2.09,0.39,3.02,0.67c0.94,0.28,1.77,0.6,2.5,0.95
		c0.73,0.35,1.21,0.65,1.44,0.88c0.23,0.23,0.39,0.43,0.47,0.6c0.08,0.16,0.15,0.38,0.21,0.65c0.06,0.27,0.1,0.61,0.12,1.02
		c0.02,0.41,0.04,0.92,0.04,1.53c0,0.68-0.02,1.25-0.05,1.72c-0.04,0.47-0.09,0.86-0.18,1.16c-0.08,0.3-0.2,0.53-0.35,0.67
		c-0.15,0.14-0.36,0.21-0.62,0.21c-0.26,0-0.67-0.16-1.23-0.49c-0.56-0.33-1.25-0.69-2.07-1.07c-0.82-0.39-1.77-0.74-2.85-1.05
		c-1.08-0.32-2.26-0.47-3.55-0.47c-1.01,0-1.89,0.12-2.64,0.37c-0.75,0.25-1.38,0.59-1.88,1.02c-0.5,0.43-0.88,0.96-1.12,1.56
		c-0.25,0.61-0.37,1.25-0.37,1.93c0,1.01,0.28,1.88,0.83,2.62c0.55,0.74,1.29,1.39,2.21,1.97c0.93,0.57,1.97,1.11,3.15,1.62
		c1.17,0.5,2.37,1.04,3.59,1.6c1.22,0.56,2.41,1.2,3.59,1.92c1.17,0.72,2.21,1.57,3.13,2.57c0.91,1,1.65,2.17,2.21,3.52
		C44.97,52.3,45.26,53.89,45.26,55.72z"/>
	<path class="st1" d="M77.85,27.67c0,0.7-0.03,1.3-0.09,1.78c-0.06,0.48-0.15,0.86-0.28,1.14s-0.28,0.49-0.44,0.63
		s-0.35,0.21-0.56,0.21H61.6v12.23h13.96c0.21,0,0.4,0.06,0.56,0.18c0.16,0.12,0.31,0.32,0.44,0.6s0.22,0.66,0.28,1.12
		c0.06,0.47,0.09,1.05,0.09,1.76s-0.03,1.29-0.09,1.76c-0.06,0.47-0.15,0.86-0.28,1.16c-0.13,0.3-0.28,0.52-0.44,0.65
		c-0.16,0.13-0.35,0.19-0.56,0.19H61.6v16.95c0,0.26-0.07,0.48-0.21,0.67c-0.14,0.19-0.39,0.35-0.76,0.47
		c-0.36,0.13-0.84,0.23-1.42,0.3c-0.59,0.07-1.34,0.11-2.25,0.11c-0.89,0-1.63-0.04-2.23-0.11s-1.07-0.17-1.42-0.3
		c-0.35-0.13-0.6-0.29-0.76-0.47c-0.15-0.19-0.23-0.41-0.23-0.67V26.79c0-1.03,0.26-1.78,0.79-2.23s1.18-0.69,1.95-0.69h21.41
		c0.21,0,0.4,0.06,0.56,0.19c0.16,0.13,0.31,0.34,0.44,0.63c0.13,0.29,0.22,0.69,0.28,1.18S77.85,26.96,77.85,27.67z"/>
</g>
<line class="st2" x1="13.59" y1="27.85" x2="85.28" y2="65.59"/>
<line class="st2" x1="21.74" y1="10.97" x2="89.67" y2="46.72"/>
<line class="st2" x1="9.06" y1="51.22" x2="68.59" y2="82.55"/>
</svg>
